<svg xmlns="http://www.w3.org/2000/svg" viewBox="0 0 640 360" preserveAspectRatio="xMidYMid slice"><defs>
<filter id="b1" x="-50%" y="-50%" width="200%" height="200%"><feGaussianBlur stdDeviation="1.2"/></filter>
<filter id="b3" x="-50%" y="-50%" width="200%" height="200%"><feGaussianBlur stdDeviation="3"/></filter>
<filter id="b8" x="-50%" y="-50%" width="200%" height="200%"><feGaussianBlur stdDeviation="8"/></filter>
<filter id="b16" x="-50%" y="-50%" width="200%" height="200%"><feGaussianBlur stdDeviation="16"/></filter>
<filter id="b30" x="-50%" y="-50%" width="200%" height="200%"><feGaussianBlur stdDeviation="30"/></filter>
<filter id="ds" x="-30%" y="-30%" width="160%" height="160%"><feDropShadow dx="0" dy="8" stdDeviation="8" flood-color="#000" flood-opacity=".45"/></filter>
<filter id="ds2" x="-30%" y="-30%" width="160%" height="160%"><feDropShadow dx="0" dy="3" stdDeviation="3" flood-color="#000" flood-opacity=".45"/></filter>
<radialGradient id="vig" cx="50%" cy="48%" r="75%"><stop offset=".55" stop-color="#000" stop-opacity="0"/><stop offset="1" stop-color="#000" stop-opacity=".75"/></radialGradient>
<linearGradient id="gloss" x1="0" y1="0" x2="0" y2="1"><stop offset="0" stop-color="#fff" stop-opacity=".55"/><stop offset=".5" stop-color="#fff" stop-opacity="0"/></linearGradient>

<radialGradient id="bg" cx="50%" cy="45%" r="75%"><stop offset="0" stop-color="#ffe36b"/><stop offset=".5" stop-color="#ff9f1c"/><stop offset="1" stop-color="#d4442a"/></radialGradient>
<radialGradient id="bell" cx="35%" cy="30%" r="80%"><stop offset="0" stop-color="#ffffff"/><stop offset=".35" stop-color="#dfe5ee"/><stop offset=".75" stop-color="#8a95a8"/><stop offset="1" stop-color="#4b5466"/></radialGradient>
<linearGradient id="base" x1="0" y1="0" x2="0" y2="1"><stop offset="0" stop-color="#5a6272"/><stop offset="1" stop-color="#1d2230"/></linearGradient>
<radialGradient id="berry" cx="35%" cy="30%" r="80%"><stop offset="0" stop-color="#ff6b7d"/><stop offset="1" stop-color="#b3122b"/></radialGradient>
<linearGradient id="ban" x1="0" y1="0" x2="0" y2="1"><stop offset="0" stop-color="#fff27a"/><stop offset="1" stop-color="#f0b400"/></linearGradient>
<radialGradient id="lime" cx="40%" cy="35%" r="70%"><stop offset="0" stop-color="#b6f35a"/><stop offset="1" stop-color="#3f9a1a"/></radialGradient></defs><rect width="640" height="360" fill="url(#bg)"/><polygon points="320,180 1020,180 1013,278" fill="#fff" opacity=".1"/><polygon points="320,180 950,484 902,569" fill="#fff" opacity=".1"/><polygon points="320,180 755,728 674,784" fill="#fff" opacity=".1"/><polygon points="320,180 473,863 376,878" fill="#fff" opacity=".1"/><polygon points="320,180 161,862 67,833" fill="#fff" opacity=".1"/><polygon points="320,180 -120,725 -191,658" fill="#fff" opacity=".1"/><polygon points="320,180 -313,479 -348,388" fill="#fff" opacity=".1"/><polygon points="320,180 -380,174 -372,76" fill="#fff" opacity=".1"/><polygon points="320,180 -308,-130 -258,-214" fill="#fff" opacity=".1"/><polygon points="320,180 -111,-372 -29,-427" fill="#fff" opacity=".1"/><polygon points="320,180 172,-504 269,-518" fill="#fff" opacity=".1"/><polygon points="320,180 485,-500 578,-471" fill="#fff" opacity=".1"/><polygon points="320,180 764,-361 835,-294" fill="#fff" opacity=".1"/><polygon points="320,180 955,-114 990,-22" fill="#fff" opacity=".1"/>
<g transform="translate(128 200) rotate(-18)" filter="url(#ds)"><rect x="-54" y="-70" width="108" height="140" rx="12" fill="#fff"/><rect x="-48" y="-64" width="96" height="128" rx="8" fill="#fff7e8" stroke="#ffd59a" stroke-width="2"/><g transform="translate(-24 -34)"><path d="M0 -11.399999999999999 C13.299999999999999 -13.299999999999999 17.099999999999998 1.9 0 20.9 C-17.099999999999998 1.9 -13.299999999999999 -13.299999999999999 0 -11.399999999999999Z" fill="url(#berry)"/><ellipse cx="-5.7" cy="-1.9" rx="1.2" ry="1.9" fill="#ffe28a"/><ellipse cx="3.8" cy="-3.8" rx="1.2" ry="1.9" fill="#ffe28a"/><ellipse cx="-1.9" cy="5.7" rx="1.2" ry="1.9" fill="#ffe28a"/><ellipse cx="6.6" cy="4.8" rx="1.2" ry="1.9" fill="#ffe28a"/><ellipse cx="-7.6" cy="7.6" rx="1.2" ry="1.9" fill="#ffe28a"/><ellipse cx="1.9" cy="13.3" rx="1.2" ry="1.9" fill="#ffe28a"/><ellipse cx="0.0" cy="-7.6" rx="1.2" ry="1.9" fill="#ffe28a"/><path d="M-8.549999999999999 -11.399999999999999 L0 -17.099999999999998 L8.549999999999999 -11.399999999999999 L2.8499999999999996 -8.549999999999999 L0 -13.299999999999999 L-2.8499999999999996 -8.549999999999999Z" fill="#2fbf55"/></g><g transform="translate(22 -34)"><path d="M0 -11.399999999999999 C13.299999999999999 -13.299999999999999 17.099999999999998 1.9 0 20.9 C-17.099999999999998 1.9 -13.299999999999999 -13.299999999999999 0 -11.399999999999999Z" fill="url(#berry)"/><ellipse cx="-5.7" cy="-1.9" rx="1.2" ry="1.9" fill="#ffe28a"/><ellipse cx="3.8" cy="-3.8" rx="1.2" ry="1.9" fill="#ffe28a"/><ellipse cx="-1.9" cy="5.7" rx="1.2" ry="1.9" fill="#ffe28a"/><ellipse cx="6.6" cy="4.8" rx="1.2" ry="1.9" fill="#ffe28a"/><ellipse cx="-7.6" cy="7.6" rx="1.2" ry="1.9" fill="#ffe28a"/><ellipse cx="1.9" cy="13.3" rx="1.2" ry="1.9" fill="#ffe28a"/><ellipse cx="0.0" cy="-7.6" rx="1.2" ry="1.9" fill="#ffe28a"/><path d="M-8.549999999999999 -11.399999999999999 L0 -17.099999999999998 L8.549999999999999 -11.399999999999999 L2.8499999999999996 -8.549999999999999 L0 -13.299999999999999 L-2.8499999999999996 -8.549999999999999Z" fill="#2fbf55"/></g><g transform="translate(0 0)"><path d="M0 -11.399999999999999 C13.299999999999999 -13.299999999999999 17.099999999999998 1.9 0 20.9 C-17.099999999999998 1.9 -13.299999999999999 -13.299999999999999 0 -11.399999999999999Z" fill="url(#berry)"/><ellipse cx="-5.7" cy="-1.9" rx="1.2" ry="1.9" fill="#ffe28a"/><ellipse cx="3.8" cy="-3.8" rx="1.2" ry="1.9" fill="#ffe28a"/><ellipse cx="-1.9" cy="5.7" rx="1.2" ry="1.9" fill="#ffe28a"/><ellipse cx="6.6" cy="4.8" rx="1.2" ry="1.9" fill="#ffe28a"/><ellipse cx="-7.6" cy="7.6" rx="1.2" ry="1.9" fill="#ffe28a"/><ellipse cx="1.9" cy="13.3" rx="1.2" ry="1.9" fill="#ffe28a"/><ellipse cx="0.0" cy="-7.6" rx="1.2" ry="1.9" fill="#ffe28a"/><path d="M-8.549999999999999 -11.399999999999999 L0 -17.099999999999998 L8.549999999999999 -11.399999999999999 L2.8499999999999996 -8.549999999999999 L0 -13.299999999999999 L-2.8499999999999996 -8.549999999999999Z" fill="#2fbf55"/></g><g transform="translate(-24 34)"><path d="M0 -11.399999999999999 C13.299999999999999 -13.299999999999999 17.099999999999998 1.9 0 20.9 C-17.099999999999998 1.9 -13.299999999999999 -13.299999999999999 0 -11.399999999999999Z" fill="url(#berry)"/><ellipse cx="-5.7" cy="-1.9" rx="1.2" ry="1.9" fill="#ffe28a"/><ellipse cx="3.8" cy="-3.8" rx="1.2" ry="1.9" fill="#ffe28a"/><ellipse cx="-1.9" cy="5.7" rx="1.2" ry="1.9" fill="#ffe28a"/><ellipse cx="6.6" cy="4.8" rx="1.2" ry="1.9" fill="#ffe28a"/><ellipse cx="-7.6" cy="7.6" rx="1.2" ry="1.9" fill="#ffe28a"/><ellipse cx="1.9" cy="13.3" rx="1.2" ry="1.9" fill="#ffe28a"/><ellipse cx="0.0" cy="-7.6" rx="1.2" ry="1.9" fill="#ffe28a"/><path d="M-8.549999999999999 -11.399999999999999 L0 -17.099999999999998 L8.549999999999999 -11.399999999999999 L2.8499999999999996 -8.549999999999999 L0 -13.299999999999999 L-2.8499999999999996 -8.549999999999999Z" fill="#2fbf55"/></g><g transform="translate(22 34)"><path d="M0 -11.399999999999999 C13.299999999999999 -13.299999999999999 17.099999999999998 1.9 0 20.9 C-17.099999999999998 1.9 -13.299999999999999 -13.299999999999999 0 -11.399999999999999Z" fill="url(#berry)"/><ellipse cx="-5.7" cy="-1.9" rx="1.2" ry="1.9" fill="#ffe28a"/><ellipse cx="3.8" cy="-3.8" rx="1.2" ry="1.9" fill="#ffe28a"/><ellipse cx="-1.9" cy="5.7" rx="1.2" ry="1.9" fill="#ffe28a"/><ellipse cx="6.6" cy="4.8" rx="1.2" ry="1.9" fill="#ffe28a"/><ellipse cx="-7.6" cy="7.6" rx="1.2" ry="1.9" fill="#ffe28a"/><ellipse cx="1.9" cy="13.3" rx="1.2" ry="1.9" fill="#ffe28a"/><ellipse cx="0.0" cy="-7.6" rx="1.2" ry="1.9" fill="#ffe28a"/><path d="M-8.549999999999999 -11.399999999999999 L0 -17.099999999999998 L8.549999999999999 -11.399999999999999 L2.8499999999999996 -8.549999999999999 L0 -13.299999999999999 L-2.8499999999999996 -8.549999999999999Z" fill="#2fbf55"/></g></g><g transform="translate(512 200) rotate(16)" filter="url(#ds)"><rect x="-54" y="-70" width="108" height="140" rx="12" fill="#fff"/><rect x="-48" y="-64" width="96" height="128" rx="8" fill="#fff7e8" stroke="#ffd59a" stroke-width="2"/><g transform="translate(-4 -26) rotate(-10)"><path d="M-26.4 -7.199999999999999 C-12.0 21.599999999999998 19.2 21.599999999999998 28.799999999999997 -9.6 C14.399999999999999 7.199999999999999 -9.6 7.199999999999999 -26.4 -7.199999999999999Z" fill="url(#ban)"/><path d="M26.4 -9.6 L31.2 -16.8" stroke="#6b4a10" stroke-width="3.5999999999999996" stroke-linecap="round"/></g><g transform="translate(4 24) rotate(-10)"><path d="M-26.4 -7.199999999999999 C-12.0 21.599999999999998 19.2 21.599999999999998 28.799999999999997 -9.6 C14.399999999999999 7.199999999999999 -9.6 7.199999999999999 -26.4 -7.199999999999999Z" fill="url(#ban)"/><path d="M26.4 -9.6 L31.2 -16.8" stroke="#6b4a10" stroke-width="3.5999999999999996" stroke-linecap="round"/></g></g><g transform="translate(214 112) rotate(-6)" filter="url(#ds)"><rect x="-54" y="-70" width="108" height="140" rx="12" fill="#fff"/><rect x="-48" y="-64" width="96" height="128" rx="8" fill="#fff7e8" stroke="#ffd59a" stroke-width="2"/><g transform="translate(-20 -22)"><circle r="14.3" fill="url(#lime)"/><circle r="11.0" fill="#e6ffb0" opacity=".6"/><line x1="0" y1="0" x2="11.0" y2="0.0" stroke="#7fc72f" stroke-width="1.54"/><line x1="0" y1="0" x2="7.8" y2="7.8" stroke="#7fc72f" stroke-width="1.54"/><line x1="0" y1="0" x2="0.0" y2="11.0" stroke="#7fc72f" stroke-width="1.54"/><line x1="0" y1="0" x2="-7.8" y2="7.8" stroke="#7fc72f" stroke-width="1.54"/><line x1="0" y1="0" x2="-11.0" y2="0.0" stroke="#7fc72f" stroke-width="1.54"/><line x1="0" y1="0" x2="-7.8" y2="-7.8" stroke="#7fc72f" stroke-width="1.54"/><line x1="0" y1="0" x2="-0.0" y2="-11.0" stroke="#7fc72f" stroke-width="1.54"/><line x1="0" y1="0" x2="7.8" y2="-7.8" stroke="#7fc72f" stroke-width="1.54"/></g><g transform="translate(20 22)"><circle r="14.3" fill="url(#lime)"/><circle r="11.0" fill="#e6ffb0" opacity=".6"/><line x1="0" y1="0" x2="11.0" y2="0.0" stroke="#7fc72f" stroke-width="1.54"/><line x1="0" y1="0" x2="7.8" y2="7.8" stroke="#7fc72f" stroke-width="1.54"/><line x1="0" y1="0" x2="0.0" y2="11.0" stroke="#7fc72f" stroke-width="1.54"/><line x1="0" y1="0" x2="-7.8" y2="7.8" stroke="#7fc72f" stroke-width="1.54"/><line x1="0" y1="0" x2="-11.0" y2="0.0" stroke="#7fc72f" stroke-width="1.54"/><line x1="0" y1="0" x2="-7.8" y2="-7.8" stroke="#7fc72f" stroke-width="1.54"/><line x1="0" y1="0" x2="-0.0" y2="-11.0" stroke="#7fc72f" stroke-width="1.54"/><line x1="0" y1="0" x2="7.8" y2="-7.8" stroke="#7fc72f" stroke-width="1.54"/></g><g transform="translate(20 -22)"><circle r="14.3" fill="url(#lime)"/><circle r="11.0" fill="#e6ffb0" opacity=".6"/><line x1="0" y1="0" x2="11.0" y2="0.0" stroke="#7fc72f" stroke-width="1.54"/><line x1="0" y1="0" x2="7.8" y2="7.8" stroke="#7fc72f" stroke-width="1.54"/><line x1="0" y1="0" x2="0.0" y2="11.0" stroke="#7fc72f" stroke-width="1.54"/><line x1="0" y1="0" x2="-7.8" y2="7.8" stroke="#7fc72f" stroke-width="1.54"/><line x1="0" y1="0" x2="-11.0" y2="0.0" stroke="#7fc72f" stroke-width="1.54"/><line x1="0" y1="0" x2="-7.8" y2="-7.8" stroke="#7fc72f" stroke-width="1.54"/><line x1="0" y1="0" x2="-0.0" y2="-11.0" stroke="#7fc72f" stroke-width="1.54"/><line x1="0" y1="0" x2="7.8" y2="-7.8" stroke="#7fc72f" stroke-width="1.54"/></g><g transform="translate(-20 22)"><circle r="14.3" fill="url(#lime)"/><circle r="11.0" fill="#e6ffb0" opacity=".6"/><line x1="0" y1="0" x2="11.0" y2="0.0" stroke="#7fc72f" stroke-width="1.54"/><line x1="0" y1="0" x2="7.8" y2="7.8" stroke="#7fc72f" stroke-width="1.54"/><line x1="0" y1="0" x2="0.0" y2="11.0" stroke="#7fc72f" stroke-width="1.54"/><line x1="0" y1="0" x2="-7.8" y2="7.8" stroke="#7fc72f" stroke-width="1.54"/><line x1="0" y1="0" x2="-11.0" y2="0.0" stroke="#7fc72f" stroke-width="1.54"/><line x1="0" y1="0" x2="-7.8" y2="-7.8" stroke="#7fc72f" stroke-width="1.54"/><line x1="0" y1="0" x2="-0.0" y2="-11.0" stroke="#7fc72f" stroke-width="1.54"/><line x1="0" y1="0" x2="7.8" y2="-7.8" stroke="#7fc72f" stroke-width="1.54"/></g></g>
<ellipse cx="330" cy="318" rx="150" ry="18" fill="#000" opacity="0.5" filter="url(#b8)"/>
<g filter="url(#ds)"><ellipse cx="330" cy="300" rx="130" ry="26" fill="url(#base)"/><ellipse cx="330" cy="292" rx="130" ry="24" fill="#6b7384"/>
<path d="M226 290 C226 190 270 138 330 138 C390 138 434 190 434 290Z" fill="url(#bell)"/>
<path d="M254 270 C254 200 280 162 322 154" stroke="#fff" stroke-width="10" fill="none" opacity=".75" stroke-linecap="round"/>
<rect x="318" y="118" width="24" height="24" rx="6" fill="#7d8698"/><ellipse cx="330" cy="114" rx="20" ry="9" fill="#b9c1ce"/></g>
<g stroke="#fff" stroke-width="7" stroke-linecap="round" opacity=".9"><path d="M252 110 L228 80"/><path d="M330 92 L330 58"/><path d="M408 110 L432 80"/></g>
<path d="M231 166 L233.1 172.0 L239 174 L233.1 175.5 L231 182 L229.6 175.5 L223 174 L229.6 172.0Z" fill="#fff" opacity="0.67"/><path d="M262 224 L263.6 229.0 L269 230 L263.6 232.0 L262 237 L260.6 232.0 L255 230 L260.6 229.0Z" fill="#fff" opacity="0.78"/><path d="M6 109 L8.1 115.0 L14 117 L8.1 118.3 L6 124 L4.9 118.3 L-1 117 L4.9 115.0Z" fill="#fff" opacity="0.49"/><path d="M476 109 L478.1 116.9 L486 119 L478.1 121.6 L476 130 L473.5 121.6 L465 119 L473.5 116.9Z" fill="#fff" opacity="0.97"/><path d="M162 295 L164.6 303.6 L173 306 L164.6 308.3 L162 317 L159.9 308.3 L152 306 L159.9 303.6Z" fill="#fff" opacity="0.80"/><path d="M18 157 L19.6 164.1 L27 166 L19.6 168.2 L18 176 L15.5 168.2 L8 166 L15.5 164.1Z" fill="#fff" opacity="0.58"/><path d="M144 112 L145.1 117.6 L150 119 L145.1 120.6 L144 126 L142.1 120.6 L137 119 L142.1 117.6Z" fill="#fff" opacity="0.87"/><path d="M223 146 L224.7 153.3 L232 155 L224.7 157.5 L223 165 L220.5 157.5 L213 155 L220.5 153.3Z" fill="#fff" opacity="0.97"/><path d="M188 22 L190.1 31.5 L199 34 L190.1 36.7 L188 46 L184.9 36.7 L176 34 L184.9 31.5Z" fill="#fff" opacity="0.90"/><path d="M506 181 L507.3 186.0 L512 187 L507.3 188.9 L506 194 L504.4 188.9 L499 187 L504.4 186.0Z" fill="#fff" opacity="0.49"/></svg>