<svg xmlns="http://www.w3.org/2000/svg" viewBox="0 0 640 360" preserveAspectRatio="xMidYMid slice"><defs>
<filter id="b1" x="-50%" y="-50%" width="200%" height="200%"><feGaussianBlur stdDeviation="1.2"/></filter>
<filter id="b3" x="-50%" y="-50%" width="200%" height="200%"><feGaussianBlur stdDeviation="3"/></filter>
<filter id="b8" x="-50%" y="-50%" width="200%" height="200%"><feGaussianBlur stdDeviation="8"/></filter>
<filter id="b16" x="-50%" y="-50%" width="200%" height="200%"><feGaussianBlur stdDeviation="16"/></filter>
<filter id="b30" x="-50%" y="-50%" width="200%" height="200%"><feGaussianBlur stdDeviation="30"/></filter>
<filter id="ds" x="-30%" y="-30%" width="160%" height="160%"><feDropShadow dx="0" dy="8" stdDeviation="8" flood-color="#000" flood-opacity=".45"/></filter>
<filter id="ds2" x="-30%" y="-30%" width="160%" height="160%"><feDropShadow dx="0" dy="3" stdDeviation="3" flood-color="#000" flood-opacity=".45"/></filter>
<radialGradient id="vig" cx="50%" cy="48%" r="75%"><stop offset=".55" stop-color="#000" stop-opacity="0"/><stop offset="1" stop-color="#000" stop-opacity=".75"/></radialGradient>
<linearGradient id="gloss" x1="0" y1="0" x2="0" y2="1"><stop offset="0" stop-color="#fff" stop-opacity=".55"/><stop offset=".5" stop-color="#fff" stop-opacity="0"/></linearGradient>

<radialGradient id="bg" cx="50%" cy="25%" r="85%"><stop offset="0" stop-color="#7048e8"/><stop offset=".55" stop-color="#34197e"/><stop offset="1" stop-color="#0e0626"/></radialGradient>
<linearGradient id="gold" x1="0" y1="0" x2="0" y2="1"><stop offset="0" stop-color="#ffe066"/><stop offset=".5" stop-color="#fcc419"/><stop offset="1" stop-color="#d9a400"/></linearGradient>
<linearGradient id="jest" x1="0" y1="0" x2="1" y2="1"><stop offset="0" stop-color="#f76707"/><stop offset="1" stop-color="#d6336c"/></linearGradient>
<radialGradient id="halo" cx="50%" cy="50%" r="50%"><stop offset="0" stop-color="#ffe9a8" stop-opacity=".8"/><stop offset="1" stop-color="#ffe9a8" stop-opacity="0"/></radialGradient></defs><rect width="640" height="360" fill="url(#bg)"/>
<circle cx="320" cy="80" r="130" fill="url(#halo)"/>
<circle cx="324" cy="163" r="10.3" fill="#ffe066" opacity="0.22" filter="url(#b3)"/><circle cx="11" cy="54" r="11.7" fill="#ffffff" opacity="0.10" filter="url(#b3)"/><circle cx="203" cy="259" r="5.9" fill="#ffffff" opacity="0.13" filter="url(#b3)"/><circle cx="48" cy="185" r="6.9" fill="#ffffff" opacity="0.24" filter="url(#b3)"/><circle cx="115" cy="309" r="12.3" fill="#b197fc" opacity="0.20" filter="url(#b3)"/><circle cx="575" cy="84" r="13.7" fill="#b197fc" opacity="0.27" filter="url(#b3)"/><circle cx="11" cy="329" r="12.3" fill="#ffe066" opacity="0.19" filter="url(#b3)"/><circle cx="224" cy="313" r="10.6" fill="#ffffff" opacity="0.29" filter="url(#b3)"/><circle cx="104" cy="350" r="11.6" fill="#ffe066" opacity="0.32" filter="url(#b3)"/><circle cx="116" cy="309" r="9.0" fill="#b197fc" opacity="0.15" filter="url(#b3)"/><circle cx="118" cy="261" r="8.0" fill="#b197fc" opacity="0.10" filter="url(#b3)"/><circle cx="343" cy="48" r="14.0" fill="#ffe066" opacity="0.20" filter="url(#b3)"/><circle cx="23" cy="126" r="15.1" fill="#ffffff" opacity="0.16" filter="url(#b3)"/><circle cx="578" cy="151" r="4.3" fill="#ffffff" opacity="0.34" filter="url(#b3)"/><circle cx="273" cy="71" r="3.3" fill="#ffffff" opacity="0.27" filter="url(#b3)"/><circle cx="484" cy="170" r="5.5" fill="#ffe066" opacity="0.32" filter="url(#b3)"/><circle cx="363" cy="7" r="14.0" fill="#ffe066" opacity="0.23" filter="url(#b3)"/><circle cx="214" cy="68" r="14.2" fill="#ffe066" opacity="0.33" filter="url(#b3)"/><circle cx="275" cy="277" r="12.9" fill="#b197fc" opacity="0.35" filter="url(#b3)"/><circle cx="628" cy="253" r="9.7" fill="#b197fc" opacity="0.28" filter="url(#b3)"/><circle cx="157" cy="340" r="3.7" fill="#ffe066" opacity="0.23" filter="url(#b3)"/><circle cx="103" cy="161" r="12.5" fill="#b197fc" opacity="0.35" filter="url(#b3)"/><circle cx="255" cy="130" r="13.3" fill="#b197fc" opacity="0.35" filter="url(#b3)"/><circle cx="146" cy="120" r="7.5" fill="#ffffff" opacity="0.13" filter="url(#b3)"/>
<g transform="translate(320.0 118) rotate(0) scale(0.82)" filter="url(#ds2)"><rect x="-34" y="-48" width="68" height="96" rx="9" fill="#fffdf6" stroke="#e5dcc4" stroke-width="2"/><text x="0" y="16" text-anchor="middle" font-size="44" fill="#c92a2a" font-family="'Gmarket Sans','Apple SD Gothic Neo','Malgun Gothic','Noto Sans KR',sans-serif" font-weight="700">1</text></g><g transform="translate(283.0 182) rotate(0) scale(0.82)" filter="url(#ds2)"><rect x="-34" y="-48" width="68" height="96" rx="9" fill="#fffdf6" stroke="#e5dcc4" stroke-width="2"/><text x="0" y="16" text-anchor="middle" font-size="44" fill="#c92a2a" font-family="'Gmarket Sans','Apple SD Gothic Neo','Malgun Gothic','Noto Sans KR',sans-serif" font-weight="700">2</text></g><g transform="translate(357.0 182) rotate(0) scale(0.82)" filter="url(#ds2)"><rect x="-34" y="-48" width="68" height="96" rx="9" fill="#fffdf6" stroke="#e5dcc4" stroke-width="2"/><text x="0" y="16" text-anchor="middle" font-size="44" fill="#c92a2a" font-family="'Gmarket Sans','Apple SD Gothic Neo','Malgun Gothic','Noto Sans KR',sans-serif" font-weight="700">2</text></g><g transform="translate(246.0 246) rotate(0) scale(0.82)" filter="url(#ds2)"><rect x="-34" y="-48" width="68" height="96" rx="9" fill="#fffdf6" stroke="#e5dcc4" stroke-width="2"/><text x="0" y="16" text-anchor="middle" font-size="44" fill="#d9480f" font-family="'Gmarket Sans','Apple SD Gothic Neo','Malgun Gothic','Noto Sans KR',sans-serif" font-weight="700">3</text></g><g transform="translate(320.0 246) rotate(0) scale(0.82)" filter="url(#ds2)"><rect x="-34" y="-48" width="68" height="96" rx="9" fill="#fffdf6" stroke="#e5dcc4" stroke-width="2"/><text x="0" y="16" text-anchor="middle" font-size="44" fill="#d9480f" font-family="'Gmarket Sans','Apple SD Gothic Neo','Malgun Gothic','Noto Sans KR',sans-serif" font-weight="700">3</text></g><g transform="translate(394.0 246) rotate(0) scale(0.82)" filter="url(#ds2)"><rect x="-34" y="-48" width="68" height="96" rx="9" fill="#fffdf6" stroke="#e5dcc4" stroke-width="2"/><text x="0" y="16" text-anchor="middle" font-size="44" fill="#d9480f" font-family="'Gmarket Sans','Apple SD Gothic Neo','Malgun Gothic','Noto Sans KR',sans-serif" font-weight="700">3</text></g><g transform="translate(209.0 310) rotate(0) scale(0.82)" filter="url(#ds2)"><rect x="-34" y="-48" width="68" height="96" rx="9" fill="#fffdf6" stroke="#e5dcc4" stroke-width="2"/><text x="0" y="16" text-anchor="middle" font-size="44" fill="#d9480f" font-family="'Gmarket Sans','Apple SD Gothic Neo','Malgun Gothic','Noto Sans KR',sans-serif" font-weight="700">4</text></g><g transform="translate(283.0 310) rotate(0) scale(0.82)" filter="url(#ds2)"><rect x="-34" y="-48" width="68" height="96" rx="9" fill="#fffdf6" stroke="#e5dcc4" stroke-width="2"/><text x="0" y="16" text-anchor="middle" font-size="44" fill="#2b8a3e" font-family="'Gmarket Sans','Apple SD Gothic Neo','Malgun Gothic','Noto Sans KR',sans-serif" font-weight="700">5</text></g><g transform="translate(357.0 310) rotate(0) scale(0.82)" filter="url(#ds2)"><rect x="-34" y="-48" width="68" height="96" rx="9" fill="#fffdf6" stroke="#e5dcc4" stroke-width="2"/><text x="0" y="16" text-anchor="middle" font-size="44" fill="#2b8a3e" font-family="'Gmarket Sans','Apple SD Gothic Neo','Malgun Gothic','Noto Sans KR',sans-serif" font-weight="700">6</text></g><g transform="translate(431.0 310) rotate(0) scale(0.82)" filter="url(#ds2)"><rect x="-34" y="-48" width="68" height="96" rx="9" fill="#fffdf6" stroke="#e5dcc4" stroke-width="2"/><text x="0" y="16" text-anchor="middle" font-size="44" fill="#1971c2" font-family="'Gmarket Sans','Apple SD Gothic Neo','Malgun Gothic','Noto Sans KR',sans-serif" font-weight="700">7</text></g>
<g transform="translate(320 48)" filter="url(#ds)"><path d="M-46 22 L-54 -24 L-24 0 L0 -34 L24 0 L54 -24 L46 22Z" fill="url(#gold)"/><rect x="-48" y="18" width="96" height="14" rx="4" fill="#d9a400"/>
<circle cx="0" cy="-34" r="6" fill="#e03131"/><circle cx="-54" cy="-24" r="5" fill="#1c7ed6"/><circle cx="54" cy="-24" r="5" fill="#2f9e44"/></g>
<g transform="translate(110 270) rotate(-18) scale(1.1)" filter="url(#ds2)"><rect x="-34" y="-48" width="68" height="96" rx="9" fill="url(#jest)" stroke="#fff" stroke-width="3"/><text x="0" y="14" text-anchor="middle" font-size="34" fill="#fff" font-family="'Gmarket Sans','Apple SD Gothic Neo','Malgun Gothic','Noto Sans KR',sans-serif" font-weight="700">★</text></g><g transform="translate(530 270) rotate(18) scale(1.1)" filter="url(#ds2)"><rect x="-34" y="-48" width="68" height="96" rx="9" fill="url(#jest)" stroke="#fff" stroke-width="3"/><text x="0" y="14" text-anchor="middle" font-size="34" fill="#fff" font-family="'Gmarket Sans','Apple SD Gothic Neo','Malgun Gothic','Noto Sans KR',sans-serif" font-weight="700">★</text></g>
<path d="M93 92 L93.9 96.7 L99 98 L93.9 99.3 L93 104 L91.3 99.3 L87 98 L91.3 96.7Z" fill="#ffe9a8" opacity="0.98"/><path d="M520 151 L521.2 156.5 L527 158 L521.2 159.6 L520 165 L518.1 159.6 L513 158 L518.1 156.5Z" fill="#ffe9a8" opacity="0.49"/><path d="M584 80 L585.8 85.3 L591 87 L585.8 88.1 L584 93 L583.0 88.1 L578 87 L583.0 85.3Z" fill="#ffe9a8" opacity="0.46"/><path d="M197 165 L197.4 167.5 L200 168 L197.4 169.2 L197 172 L195.8 169.2 L193 168 L195.8 167.5Z" fill="#ffe9a8" opacity="0.45"/><path d="M208 64 L209.7 68.6 L214 70 L209.7 71.2 L208 76 L207.1 71.2 L202 70 L207.1 68.6Z" fill="#ffe9a8" opacity="0.69"/><path d="M116 -5 L117.4 -0.8 L121 0 L117.4 1.5 L116 5 L115.1 1.5 L111 0 L115.1 -0.8Z" fill="#ffe9a8" opacity="0.58"/><path d="M345 105 L346.4 110.4 L352 112 L346.4 113.7 L345 119 L343.2 113.7 L338 112 L343.2 110.4Z" fill="#ffe9a8" opacity="0.66"/><path d="M246 121 L247.8 127.4 L254 129 L247.8 131.1 L246 138 L244.1 131.1 L237 129 L244.1 127.4Z" fill="#ffe9a8" opacity="0.80"/><path d="M17 51 L19.0 57.9 L26 60 L19.0 61.7 L17 69 L15.1 61.7 L8 60 L15.1 57.9Z" fill="#ffe9a8" opacity="0.98"/><path d="M191 40 L191.7 41.9 L194 43 L191.7 43.3 L191 46 L190.4 43.3 L188 43 L190.4 41.9Z" fill="#ffe9a8" opacity="0.47"/><path d="M46 188 L48.1 194.5 L55 196 L48.1 198.4 L46 205 L44.2 198.4 L37 196 L44.2 194.5Z" fill="#ffe9a8" opacity="0.60"/><path d="M17 176 L18.6 181.7 L24 183 L18.6 184.7 L17 190 L15.6 184.7 L10 183 L15.6 181.7Z" fill="#ffe9a8" opacity="0.94"/><path d="M193 164 L194.3 170.4 L200 172 L194.3 173.8 L193 180 L190.9 173.8 L185 172 L190.9 170.4Z" fill="#ffe9a8" opacity="0.80"/><path d="M429 135 L429.9 139.1 L434 140 L429.9 141.6 L429 146 L427.4 141.6 L423 140 L427.4 139.1Z" fill="#ffe9a8" opacity="0.97"/><rect width="640" height="360" fill="url(#vig)"/></svg>